<?xml version="1.0"?>
<svg xmlns="http://www.w3.org/2000/svg" id="Outline" viewBox="0 0 512 512" width="512" height="512"><path d="M472,288a24,24,0,1,0-24-24A24.027,24.027,0,0,0,472,288Zm0-32a8,8,0,1,1-8,8A8.009,8.009,0,0,1,472,256Z"/><path d="M408,240a24,24,0,1,0-24-24A24.027,24.027,0,0,0,408,240Zm0-32a8,8,0,1,1-8,8A8.009,8.009,0,0,1,408,208Z"/><circle cx="408" cy="280" r="8"/><circle cx="472" cy="200" r="8"/><path d="M479.138,400H480a8,8,0,0,0,8-8V344a8,8,0,0,0-8-8H464V320h8a8,8,0,0,0,0-16H408a8,8,0,0,0,0,16h8v22.131A24.076,24.076,0,0,0,409.376,352H364.529L320,277.784V232a40.071,40.071,0,0,0-32-39.2V120a104,104,0,0,0-208,0v72.8A40.071,40.071,0,0,0,48,232v47.386l-31.907,207.4A8,8,0,0,0,24,496H280a8,8,0,0,0,8-8V393.889l16.845,33.689A8,8,0,0,0,312,432h72.581a56,56,0,1,0,94.557-32ZM472,384H432a8.009,8.009,0,0,1-8-8V360a8.009,8.009,0,0,1,8-8h40Zm-40-64h16v16H432ZM304,232v40H216V248.472a72.142,72.142,0,0,0,39.635-57.212A39.827,39.827,0,0,0,272,183.978V200a8,8,0,0,0,8,8A24.028,24.028,0,0,1,304,232ZM140.8,297.6,128,288h27.056L176,329.889V368l-32-42.667V304A8,8,0,0,0,140.8,297.6ZM128,128H240v41.223l-35.487,5.915-5.358-10.716A8,8,0,0,0,192,160H176a8,8,0,0,0-7.156,4.422l-5.358,10.716L128,169.223Zm128,1.376a24,24,0,0,1,0,45.248ZM153.888,112l59.373-29.687L233.052,112ZM112,174.624a24,24,0,0,1,0-45.248Zm54.684,17.268a8,8,0,0,0,8.471-4.314L180.944,176h6.111l5.789,11.578a8.007,8.007,0,0,0,8.47,4.314l38.649-6.442a55.981,55.981,0,0,1-111.926,0ZM184,256a71.947,71.947,0,0,0,16-1.814v23.925l-16,32-16-32V254.186A71.947,71.947,0,0,0,184,256Zm8,73.889L212.944,288H240l-12.8,9.6A8,8,0,0,0,224,304v21.333L192,368ZM184,32a88.1,88.1,0,0,1,88,88v.022a39.776,39.776,0,0,0-19.55-7.768L222.656,67.562a8,8,0,0,0-10.234-2.717l-94.411,47.206A39.775,39.775,0,0,0,96,120.022V120A88.1,88.1,0,0,1,184,32ZM88,208a8,8,0,0,0,8-8V183.978a39.827,39.827,0,0,0,16.365,7.282A72.142,72.142,0,0,0,152,248.472V272H64V232A24.028,24.028,0,0,1,88,208ZM62.863,288h38.47L128,308v20a8,8,0,0,0,1.6,4.8L176,394.666V480H96V360a8,8,0,0,0-16,0V480H33.325ZM316.944,416l-29.789-59.578A8,8,0,0,0,272,360V480H192V394.666L238.4,332.8A8,8,0,0,0,240,328V308l26.667-20h40.8l45.669,76.116A8,8,0,0,0,360,368h48v8a23.868,23.868,0,0,0,5.174,14.858A56.375,56.375,0,0,0,389.414,416ZM440,480a40,40,0,1,1,40-40A40.045,40.045,0,0,1,440,480Z"/></svg>
